<svg width="18" height="18" viewBox="0 0 18 18" fill="none" xmlns="http://www.w3.org/2000/svg">
<path d="M12.0002 1.5C12.8762 1.49979 13.7332 1.75529 14.4662 2.23515C15.1991 2.71501 15.776 3.39837 16.1262 4.20138C16.4763 5.0044 16.5844 5.89216 16.4373 6.75576C16.2902 7.61935 15.8942 8.42122 15.2979 9.063L15.1554 9.2085L8.61015 15.7538L8.5704 15.7913L8.5284 15.825C7.99522 16.2847 7.30802 16.5258 6.60452 16.5002C5.90102 16.4745 5.23321 16.184 4.73491 15.6867C4.23661 15.1894 3.94464 14.5222 3.91752 13.8188C3.8904 13.1154 4.13012 12.4277 4.58865 11.8935L4.7004 11.7705L4.71165 11.7623L10.1792 6.28425C10.3197 6.14342 10.5104 6.06419 10.7094 6.06398C10.9083 6.06377 11.0992 6.1426 11.24 6.28313C11.3809 6.42366 11.4601 6.61438 11.4603 6.81333C11.4605 7.01229 11.3817 7.20317 11.2412 7.344L5.77365 12.822L5.76465 12.828C5.54398 13.0637 5.41963 13.3735 5.41613 13.6963C5.41264 14.0191 5.53025 14.3315 5.74577 14.5719C5.96129 14.8123 6.25907 14.9632 6.58037 14.9948C6.90167 15.0264 7.22315 14.9365 7.4814 14.7428L7.5729 14.6678L7.57365 14.6685L14.1002 8.1435L14.2194 8.01975C14.7445 7.4426 15.0241 6.68357 14.9988 5.90371C14.9735 5.12384 14.6454 4.38451 14.084 3.84257C13.5227 3.30063 12.7722 2.99872 11.992 3.0009C11.2117 3.00308 10.463 3.30918 9.90465 3.85425L9.7884 3.97425L9.7749 3.98325L2.7804 10.9808C2.71072 11.0504 2.628 11.1056 2.53698 11.1433C2.44595 11.1809 2.3484 11.2003 2.24989 11.2003C2.15138 11.2002 2.05384 11.1808 1.96284 11.1431C1.87184 11.1053 1.78916 11.0501 1.71953 10.9804C1.64989 10.9107 1.59467 10.828 1.557 10.737C1.51933 10.6459 1.49997 10.5484 1.5 10.4499C1.50007 10.2509 1.57917 10.0601 1.7199 9.9195L8.70165 2.93475L8.73615 2.9025C9.15623 2.45885 9.66247 2.10562 10.2238 1.86446C10.7852 1.6233 11.3892 1.49928 12.0002 1.5Z" fill="#00C389"/>
</svg>
